<svg width="31" height="34" viewBox="0 0 31 34" fill="none" xmlns="http://www.w3.org/2000/svg">
<path d="M0 0V27.1462C0 28.2654 0.449214 29.3388 1.24882 30.1302C2.04842 30.9215 3.1329 31.3661 4.26371 31.3661H23.7007C24.8315 31.3661 25.916 30.9215 26.7156 30.1302C27.5152 29.3388 27.9644 28.2654 27.9644 27.1462V4.2199C27.9644 3.10072 27.5152 2.02735 26.7156 1.23597C25.916 0.444582 24.8315 0 23.7007 0H6.54136" fill="white"/>
<path opacity="0.5" d="M17.3692 11.102L13.4961 9.28605L9.62305 11.102V1.41797H17.3692V11.102Z" fill="#FFCC66"/>
<path d="M16.9375 12.5257L13.7906 11.0501C13.7153 11.0151 13.6331 10.9969 13.5499 10.9969C13.4667 10.9969 13.3846 11.0151 13.3092 11.0501L10.1623 12.5257C10.0784 12.5664 9.98532 12.5852 9.89195 12.5805C9.79858 12.5757 9.70798 12.5475 9.62869 12.4984C9.54941 12.4494 9.48406 12.3812 9.43882 12.3002C9.39358 12.2192 9.36993 12.1281 9.37012 12.0356V2.99958C9.37012 2.85517 9.42808 2.71665 9.53125 2.61453C9.63443 2.51242 9.77436 2.45508 9.92027 2.45508H17.1741C17.32 2.45508 17.4599 2.51242 17.5631 2.61453C17.6663 2.71665 17.7242 2.85517 17.7242 2.99958V12.0356C17.724 12.1274 17.7003 12.2177 17.6553 12.298C17.6104 12.3783 17.5456 12.446 17.4671 12.4949C17.3886 12.5438 17.2989 12.5723 17.2063 12.5776C17.1137 12.583 17.0213 12.5651 16.9375 12.5257Z" stroke="#494949" stroke-width="1.375" stroke-miterlimit="10"/>
<path d="M2.52246 2.44697V28.8881C2.52756 29.983 2.97172 31.031 3.75732 31.8019C4.54291 32.5728 5.60564 33.0034 6.7119 32.9991H25.8106C26.9168 33.0034 27.9796 32.5728 28.7652 31.8019C29.5508 31.031 29.9949 29.983 30 28.8881V6.56342C29.9975 6.0214 29.8871 5.4852 29.6752 4.9854C29.4633 4.48561 29.154 4.03199 28.765 3.6505C28.376 3.26901 27.9148 2.9671 27.4079 2.76199C26.901 2.55689 26.3582 2.45264 25.8106 2.45514L16.4964 2.37891" stroke="#494949" stroke-width="1.375" stroke-miterlimit="10" stroke-linecap="round"/>
<path d="M9.62305 19.9072H23.9079" stroke="#4D2C19" stroke-width="1.375" stroke-miterlimit="10" stroke-linecap="round"/>
<path d="M9.62305 23.1738H21.4734" stroke="#4D2C19" stroke-width="1.375" stroke-miterlimit="10" stroke-linecap="round"/>
<path d="M9.62305 26.4414H18.1725" stroke="#4D2C19" stroke-width="1.375" stroke-miterlimit="10" stroke-linecap="round"/>
</svg>
